<svg width="30" height="30" viewBox="0 0 30 30" fill="none" xmlns="http://www.w3.org/2000/svg">
<g id="Frame 2604">
<circle id="Ellipse 29" cx="15" cy="15" r="15" fill="white"/>
<path id="Vector" d="M24.5821 10.2003C24.3521 9.33421 23.6744 8.65211 22.8139 8.42063C21.2542 8 15 8 15 8C15 8 8.74586 8 7.18613 8.42063C6.32565 8.65215 5.64794 9.33421 5.41792 10.2003C5 11.7701 5 15.0455 5 15.0455C5 15.0455 5 18.3208 5.41792 19.8906C5.64794 20.7567 6.32565 21.4104 7.18613 21.6419C8.74586 22.0625 15 22.0625 15 22.0625C15 22.0625 21.2541 22.0625 22.8139 21.6419C23.6744 21.4104 24.3521 20.7567 24.5821 19.8906C25 18.3208 25 15.0455 25 15.0455C25 15.0455 25 11.7701 24.5821 10.2003ZM12.9545 18.0192V12.0717L18.1818 15.0455L12.9545 18.0192Z" fill="#F70000"/>
</g>
</svg>
