<svg width="145" height="30" viewBox="0 0 145 30" fill="none" xmlns="http://www.w3.org/2000/svg">
<g id="Frame 34">
<circle id="Ellipse 26" cx="15" cy="15" r="15" fill="#D9D9D9"/>
<circle id="Ellipse 27" cx="53" cy="15" r="15" fill="#D9D9D9"/>
<circle id="Ellipse 28" cx="92" cy="15" r="15" fill="#D9D9D9"/>
<circle id="Ellipse 29" cx="130" cy="15" r="15" fill="#D9D9D9"/>
<path id="Vector" d="M19.3447 15.5025L19.8632 12.1235H16.621V9.93071C16.621 9.00627 17.0739 8.10517 18.526 8.10517H20V5.22828C20 5.22828 18.6624 5 17.3835 5C14.7134 5 12.9681 6.61841 12.9681 9.54817V12.1235H10V15.5025H12.9681V23.6711H16.621V15.5025H19.3447Z" fill="#1674EA"/>
<path id="Vector_2" d="M139.582 10.2003C139.352 9.33421 138.674 8.65211 137.814 8.42063C136.254 8 130 8 130 8C130 8 123.746 8 122.186 8.42063C121.326 8.65215 120.648 9.33421 120.418 10.2003C120 11.7701 120 15.0455 120 15.0455C120 15.0455 120 18.3208 120.418 19.8906C120.648 20.7567 121.326 21.4104 122.186 21.6419C123.746 22.0625 130 22.0625 130 22.0625C130 22.0625 136.254 22.0625 137.814 21.6419C138.674 21.4104 139.352 20.7567 139.582 19.8906C140 18.3208 140 15.0455 140 15.0455C140 15.0455 140 11.7701 139.582 10.2003ZM127.955 18.0192V12.0717L133.182 15.0455L127.955 18.0192Z" fill="#F70000"/>
<path id="Vector_3" d="M53.002 10.384C50.4481 10.384 48.3881 12.4441 48.3881 14.998C48.3881 17.5519 50.4481 19.6119 53.002 19.6119C55.5559 19.6119 57.616 17.5519 57.616 14.998C57.616 12.4441 55.5559 10.384 53.002 10.384ZM53.002 17.9977C51.3516 17.9977 50.0023 16.6524 50.0023 14.998C50.0023 13.3436 51.3476 11.9983 53.002 11.9983C54.6564 11.9983 56.0017 13.3436 56.0017 14.998C56.0017 16.6524 54.6524 17.9977 53.002 17.9977ZM58.8809 10.1953C58.8809 10.7936 58.399 11.2715 57.8047 11.2715C57.2064 11.2715 56.7285 10.7896 56.7285 10.1953C56.7285 9.601 57.2104 9.11913 57.8047 9.11913C58.399 9.11913 58.8809 9.601 58.8809 10.1953ZM61.9368 11.2876C61.8685 9.84596 61.5392 8.56899 60.4831 7.5169C59.431 6.46481 58.154 6.13553 56.7124 6.06325C55.2267 5.97892 50.7733 5.97892 49.2876 6.06325C47.85 6.13151 46.573 6.46079 45.5169 7.51288C44.4608 8.56498 44.1355 9.84194 44.0632 11.2835C43.9789 12.7693 43.9789 17.2226 44.0632 18.7084C44.1315 20.15 44.4608 21.427 45.5169 22.4791C46.573 23.5312 47.846 23.8605 49.2876 23.9327C50.7733 24.0171 55.2267 24.0171 56.7124 23.9327C58.154 23.8645 59.431 23.5352 60.4831 22.4791C61.5352 21.427 61.8645 20.15 61.9368 18.7084C62.0211 17.2226 62.0211 12.7733 61.9368 11.2876ZM60.0173 20.3026C59.7041 21.0897 59.0977 21.696 58.3066 22.0133C57.122 22.4831 54.3111 22.3747 53.002 22.3747C51.6929 22.3747 48.878 22.4791 47.6974 22.0133C46.9103 21.7001 46.304 21.0937 45.9867 20.3026C45.5169 19.118 45.6253 16.3071 45.6253 14.998C45.6253 13.6889 45.5209 10.874 45.9867 9.69336C46.2999 8.9063 46.9063 8.29994 47.6974 7.98271C48.882 7.51288 51.6929 7.6213 53.002 7.6213C54.3111 7.6213 57.126 7.5169 58.3066 7.98271C59.0937 8.29593 59.7001 8.90229 60.0173 9.69336C60.4871 10.878 60.3787 13.6889 60.3787 14.998C60.3787 16.3071 60.4871 19.122 60.0173 20.3026Z" fill="#BE2E8C"/>
<path id="Vector_4" d="M99.9442 11.0482C99.9569 11.2259 99.9569 11.4036 99.9569 11.5812C99.9569 17 95.8326 23.2437 88.2944 23.2437C85.9721 23.2437 83.8147 22.5711 82 21.4036C82.33 21.4417 82.6472 21.4544 82.9898 21.4544C84.9061 21.4544 86.6701 20.8072 88.0787 19.7031C86.2767 19.665 84.7665 18.4848 84.2462 16.8604C84.5 16.8985 84.7538 16.9239 85.0203 16.9239C85.3883 16.9239 85.7564 16.8731 86.099 16.7843C84.2208 16.4036 82.8122 14.7538 82.8122 12.7614V12.7107C83.3578 13.0153 83.9924 13.2056 84.6649 13.231C83.5609 12.4949 82.8375 11.2386 82.8375 9.81724C82.8375 9.05583 83.0406 8.35786 83.3959 7.74871C85.4137 10.236 88.4467 11.8604 91.8477 12.0381C91.7843 11.7335 91.7462 11.4163 91.7462 11.099C91.7462 8.84009 93.5736 7 95.8452 7C97.0254 7 98.0914 7.49492 98.8401 8.29442C99.7665 8.11676 100.655 7.7741 101.442 7.30457C101.137 8.25637 100.49 9.05587 99.6396 9.56345C100.464 9.47466 101.264 9.24618 102 8.92895C101.442 9.7411 100.744 10.4644 99.9442 11.0482Z" fill="#1C96E8"/>
</g>
</svg>
