<svg width="30" height="30" viewBox="0 0 30 30" fill="none" xmlns="http://www.w3.org/2000/svg">
<g id="Frame 2602">
<circle id="Ellipse 27" cx="15" cy="15" r="15" fill="white"/>
<path id="Vector" d="M15.002 10.384C12.4481 10.384 10.3881 12.4441 10.3881 14.998C10.3881 17.5519 12.4481 19.6119 15.002 19.6119C17.5559 19.6119 19.616 17.5519 19.616 14.998C19.616 12.4441 17.5559 10.384 15.002 10.384ZM15.002 17.9977C13.3516 17.9977 12.0023 16.6524 12.0023 14.998C12.0023 13.3436 13.3476 11.9983 15.002 11.9983C16.6564 11.9983 18.0017 13.3436 18.0017 14.998C18.0017 16.6524 16.6524 17.9977 15.002 17.9977ZM20.8809 10.1953C20.8809 10.7936 20.399 11.2715 19.8047 11.2715C19.2064 11.2715 18.7285 10.7896 18.7285 10.1953C18.7285 9.601 19.2104 9.11913 19.8047 9.11913C20.399 9.11913 20.8809 9.601 20.8809 10.1953ZM23.9368 11.2876C23.8685 9.84596 23.5392 8.56899 22.4831 7.5169C21.431 6.46481 20.154 6.13553 18.7124 6.06325C17.2267 5.97892 12.7733 5.97892 11.2876 6.06325C9.84997 6.13151 8.57301 6.46079 7.5169 7.51288C6.46079 8.56498 6.13553 9.84194 6.06325 11.2835C5.97892 12.7693 5.97892 17.2226 6.06325 18.7084C6.13151 20.15 6.46079 21.427 7.5169 22.4791C8.57301 23.5312 9.84596 23.8605 11.2876 23.9327C12.7733 24.0171 17.2267 24.0171 18.7124 23.9327C20.154 23.8645 21.431 23.5352 22.4831 22.4791C23.5352 21.427 23.8645 20.15 23.9368 18.7084C24.0211 17.2226 24.0211 12.7733 23.9368 11.2876ZM22.0173 20.3026C21.7041 21.0897 21.0977 21.696 20.3066 22.0133C19.122 22.4831 16.3111 22.3747 15.002 22.3747C13.6929 22.3747 10.878 22.4791 9.69738 22.0133C8.91032 21.7001 8.30396 21.0937 7.98673 20.3026C7.5169 19.118 7.62532 16.3071 7.62532 14.998C7.62532 13.6889 7.52091 10.874 7.98673 9.69336C8.29994 8.9063 8.9063 8.29994 9.69738 7.98271C10.882 7.51288 13.6929 7.62131 15.002 7.62131C16.3111 7.62131 19.126 7.5169 20.3066 7.98271C21.0937 8.29593 21.7001 8.90229 22.0173 9.69336C22.4871 10.878 22.3787 13.6889 22.3787 14.998C22.3787 16.3071 22.4871 19.122 22.0173 20.3026Z" fill="#BE2E8C"/>
</g>
</svg>
