<svg width="30" height="30" viewBox="0 0 30 30" fill="none" xmlns="http://www.w3.org/2000/svg">
<g id="Frame 2603">
<circle id="Ellipse 28" cx="15" cy="15" r="15" fill="white"/>
<path id="Vector" d="M22.9442 11.0482C22.9569 11.2259 22.9569 11.4036 22.9569 11.5812C22.9569 17 18.8326 23.2437 11.2944 23.2437C8.97209 23.2437 6.81473 22.5711 5 21.4036C5.32996 21.4417 5.64719 21.4544 5.98985 21.4544C7.90607 21.4544 9.67006 20.8072 11.0787 19.7031C9.27666 19.665 7.7665 18.4848 7.24618 16.8604C7.50001 16.8985 7.7538 16.9239 8.02032 16.9239C8.38833 16.9239 8.75638 16.8731 9.099 16.7843C7.22083 16.4036 5.81215 14.7538 5.81215 12.7614V12.7107C6.35782 13.0153 6.99239 13.2056 7.66493 13.231C6.56087 12.4949 5.83754 11.2386 5.83754 9.81724C5.83754 9.05583 6.04055 8.35786 6.3959 7.74871C8.41369 10.236 11.4467 11.8604 14.8477 12.0381C14.7843 11.7335 14.7462 11.4163 14.7462 11.099C14.7462 8.84009 16.5736 7 18.8452 7C20.0254 7 21.0914 7.49492 21.8401 8.29442C22.7665 8.11676 23.6548 7.7741 24.4416 7.30457C24.137 8.25637 23.4898 9.05587 22.6396 9.56345C23.4645 9.47466 24.264 9.24618 25 8.92895C24.4417 9.7411 23.7437 10.4644 22.9442 11.0482Z" fill="#1C96E8"/>
</g>
</svg>
